<?xml version="1.0" encoding="utf-8"?>
<!-- Generator: Adobe Illustrator 21.1.0, SVG Export Plug-In . SVG Version: 6.00 Build 0)  -->
<svg version="1.1" id="Layer_1" xmlns="http://www.w3.org/2000/svg" xmlns:xlink="http://www.w3.org/1999/xlink" x="0px" y="0px"
	 viewBox="0 0 273 73" style="enable-background:new 0 0 273 73;" xml:space="preserve">
<style type="text/css">
	.st0{fill:#8F3730;}
	.st1{clip-path:url(#SVGID_2_);fill:url(#SVGID_3_);}
	.st2{fill-rule:evenodd;clip-rule:evenodd;fill:#FACB76;}
	.st3{fill:none;stroke:#0288D1;stroke-width:0.216;stroke-miterlimit:22.9256;}
	.st4{fill-rule:evenodd;clip-rule:evenodd;fill:#0288D1;}
	.st5{fill:#0288D1;}
	.st6{display:none;fill:none;stroke:#FFFFFF;stroke-width:0.216;stroke-miterlimit:22.9256;}
</style>
<path class="st0" d="M21,33.4h12L27,18L21,33.4z M101.2,37.6c0,1.7,0.3,2.9,1,3.6c0.7,0.8,1.6,1.1,2.8,1.1c1.1,0,1.9-0.1,2.4-0.3
	c0.5-0.2,1.2-0.3,1.9-0.3c0.7,0,1.3,0.1,1.7,0.4c0.5,0.3,0.9,0.6,1.2,1.1c0.3,0.4,0.6,0.9,0.7,1.4c0.2,0.5,0.2,1,0.2,1.5
	c0,2.4-0.8,4.1-2.4,5.1c-1.2,0.7-2.4,1.2-3.7,1.5c-1.2,0.3-2.8,0.4-4.6,0.4c-2.6,0-4.7-0.4-6.5-1.3c-1.7-0.9-3.1-2-4.1-3.4
	c-1-1.4-1.7-3-2.1-4.7c-0.4-1.8-0.6-3.5-0.6-5.4V22.7H88c-1.5,0-2.8-0.5-3.8-1.4c-1-0.9-1.5-2.2-1.5-3.8c0-1.6,0.5-2.8,1.5-3.8
	c1-1,2.3-1.4,3.8-1.4h1.4V7.5c0-1.6,0.6-3,1.7-4.1c1.1-1.1,2.5-1.7,4.2-1.7c1.7,0,3.1,0.6,4.2,1.7c1.1,1.1,1.7,2.5,1.7,4.1v4.7h5.8
	c1.5,0,2.8,0.5,3.8,1.4c1,0.9,1.5,2.2,1.5,3.8c0,1.6-0.5,2.9-1.5,3.8c-1,0.9-2.3,1.4-3.8,1.4h-5.8V37.6z M121.1,49
	c-0.7-0.6-1.1-1.2-1.3-1.9c-0.2-0.6-0.3-1.3-0.3-1.9c0-0.6,0.1-1.1,0.3-1.7c0.2-0.6,0.5-1.1,0.9-1.5c0.4-0.5,0.8-0.8,1.4-1.1
	c0.5-0.3,1.1-0.5,1.6-0.5c0.8,0,1.5,0.2,2.2,0.5c0.6,0.3,1.2,0.6,1.5,0.8c2,1.3,4,1.9,6,1.9c1.2,0,2.2-0.1,2.9-0.4
	c0.7-0.3,1-0.8,1-1.6c0-0.8-0.4-1.5-1.3-2c-0.9-0.5-1.9-1-3.2-1.5c-1.3-0.5-2.7-0.9-4.2-1.5c-1.5-0.6-2.9-1.3-4.2-2.2
	c-1.3-0.9-2.4-2-3.2-3.3c-0.9-1.3-1.3-3-1.3-5.1c0-1.6,0.3-3.1,1-4.5c0.7-1.4,1.7-2.6,2.9-3.6c1.3-1,2.7-1.8,4.5-2.4
	c1.7-0.6,3.6-0.9,5.7-0.9c3,0,5.4,0.4,7.2,1.1c1.8,0.7,3.3,1.6,4.5,2.7c0.7,0.6,1.1,1.3,1.4,2c0.3,0.7,0.4,1.4,0.4,1.9
	c0,0.5-0.1,1.1-0.3,1.6c-0.2,0.6-0.5,1.1-0.8,1.5c-0.4,0.5-0.8,0.8-1.3,1.1c-0.5,0.3-1.1,0.5-1.7,0.5c-0.5,0-1.1-0.1-1.7-0.4
	c-0.6-0.3-1.2-0.6-1.8-1c-0.6-0.4-1.3-0.8-2.2-1.1c-0.9-0.4-2-0.6-3.3-0.6c-1,0-1.8,0.2-2.4,0.5c-0.6,0.3-0.9,0.7-0.9,1.3
	c0,0.7,0.4,1.2,1.3,1.7c0.9,0.5,1.9,0.9,3.1,1.3c1.2,0.4,2.5,0.9,3.9,1.4c0.1,0,0.6,0.2,1.5,0.5c0.8,0.3,1.9,0.9,3.2,1.8
	c1.3,0.9,2.4,2,3.2,3.2c0.9,1.3,1.3,2.9,1.3,4.9c0,1.8-0.4,3.4-1.1,4.9c-0.7,1.5-1.7,2.8-3,3.9c-1.3,1.1-2.9,2-4.7,2.6
	c-1.8,0.6-3.8,0.9-6,0.9c-3,0-5.5-0.4-7.6-1.1C123.9,51.1,122.3,50.2,121.1,49z M14.7,49.6c-0.5,1.3-1.2,2.2-2.1,2.8
	c-0.9,0.5-1.9,0.8-3.2,0.8c-1.7,0-3.1-0.5-4.1-1.4c-1-0.9-1.5-2.2-1.5-3.7c0-0.6,0-1.2,0.1-1.7c0.1-0.5,0.3-0.9,0.4-1.3L20.7,6.9
	c0.6-1.5,1.5-2.6,2.5-3.5c1-0.8,2.4-1.3,4-1.3c1.6,0,3,0.4,4,1.3c1.1,0.8,1.9,2,2.5,3.5l16.4,38.1c0.3,0.7,0.5,1.5,0.5,2.4
	c0,1.7-0.6,3.1-1.7,4.1c-1.2,1-2.6,1.5-4.3,1.5c-1.4,0-2.5-0.3-3.3-0.9c-0.8-0.6-1.5-1.5-1.9-2.6l-2.7-6.8H17.3L14.7,49.6z
	 M172.7,15.4c10,0,18.1,7.8,18.8,17.6c0,0.3,0.1,0.5,0.1,0.8v15.3c0,2.3-1.3,4.1-3,4.1h-2.2c-1.5,0-2.7-1.5-2.9-3.5
	c-3.1,2.1-6.8,3.4-10.8,3.4c-10.4,0-18.9-8.4-18.9-18.9C153.9,23.8,162.3,15.4,172.7,15.4z M208.3,27.7l9.4-9.7c1-1,2-1.8,2.9-2.3
	c0.9-0.5,1.8-0.7,2.8-0.7c1.3,0,2.4,0.4,3.3,1.3c0.9,0.8,1.4,1.9,1.4,3c0,0.9-0.2,1.8-0.7,2.7c-0.5,0.9-1.2,1.7-2,2.6l-7.9,8.7
	l9.3,10.4c0.8,0.9,1.3,1.8,1.6,2.6c0.3,0.9,0.5,1.7,0.5,2.7c0,1.3-0.5,2.4-1.5,3.2c-1,0.9-2.2,1.3-3.7,1.3c-1.1,0-2.1-0.3-3-0.8
	c-0.9-0.6-1.8-1.5-2.7-2.6l-9.4-10.8l-0.1,5.9c-0.1,2.7-0.5,4.8-1.4,6.1c-0.9,1.4-2.3,2-4.2,2c-1.9,0-3.2-0.7-4.1-2
	c-0.9-1.4-1.4-3.4-1.4-6.1V9.7c0-2.7,0.5-4.8,1.4-6.1c0.9-1.3,2.3-2,4.1-2c1.9,0,3.2,0.7,4.2,2c0.9,1.3,1.4,3.4,1.4,6V27.7z
	 M243.7,17.1c13.4-5.6,28,1.2,28,12.5v15.8c0,2.7,0,4.7-0.9,6c-0.9,1.3-2.3,2-4.2,2c-1.9,0-3.3-0.7-4.2-2c-0.9-1.3-1.4-3.3-1.4-6
	V32.9c0-2.4-2-8.1-8.6-8.1c-6.5,0-8.9,4.5-8.9,8v12.6c0,2.7-0.5,4.7-1.4,6c-0.9,1.3-2.3,2-4.2,2c-1.9,0-3.2-0.7-4.1-2
	c-0.9-1.3-1.4-3.3-1.4-6V10c0-2.7,0.5-4.8,1.4-6.1c0.9-1.3,2.3-2,4.1-2c1.9,0,3.2,0.7,4.2,2c0.9,1.3,1.4,3.4,1.4,6V17.1z M64.7,33.8
	v16.6c0,1.6-1.3,2.8-2.8,2.8h-3.9c-1.6,0-2.8-1.3-2.8-2.8V33.8c-0.2-11,4.1-17.4,13.8-18.4h5.5c1.7,0,4.6,1.6,4.6,3.5v2.7
	c0,1.9-1.8,3.2-3.5,3.3L72,24.9C67,25.1,64.6,28.1,64.7,33.8z"/>
<g>
	<defs>
		<path id="SVGID_1_" d="M19.3,31.7h12l-6-15.4L19.3,31.7z M99.4,35.9c0,1.7,0.3,2.9,1,3.6c0.7,0.8,1.6,1.1,2.8,1.1
			c1.1,0,1.9-0.1,2.4-0.4c0.5-0.2,1.2-0.3,1.9-0.3c0.7,0,1.3,0.1,1.7,0.4c0.5,0.3,0.9,0.6,1.2,1.1c0.3,0.4,0.6,0.9,0.7,1.4
			c0.2,0.5,0.2,1,0.2,1.5c0,2.4-0.8,4.1-2.4,5.1c-1.2,0.7-2.4,1.2-3.7,1.5c-1.2,0.3-2.8,0.4-4.6,0.4c-2.6,0-4.7-0.4-6.5-1.3
			c-1.7-0.9-3.1-2-4.1-3.4c-1-1.4-1.7-3-2.1-4.7c-0.4-1.8-0.6-3.5-0.6-5.4V21h-1.4c-1.5,0-2.8-0.5-3.8-1.4c-1-0.9-1.5-2.2-1.5-3.8
			c0-1.6,0.5-2.8,1.5-3.8c1-1,2.3-1.4,3.8-1.4h1.4V5.8c0-1.6,0.6-3,1.7-4.1c1.1-1.1,2.5-1.7,4.2-1.7c1.7,0,3.1,0.6,4.2,1.7
			c1.1,1.1,1.7,2.5,1.7,4.1v4.7h5.8c1.5,0,2.8,0.5,3.8,1.4c1,0.9,1.5,2.2,1.5,3.8c0,1.6-0.5,2.9-1.5,3.8c-1,0.9-2.3,1.4-3.8,1.4
			h-5.8V35.9z M119.3,47.3c-0.7-0.6-1.1-1.2-1.3-1.9c-0.2-0.6-0.3-1.3-0.3-1.9c0-0.6,0.1-1.1,0.3-1.7c0.2-0.6,0.5-1.1,0.9-1.5
			c0.4-0.5,0.8-0.8,1.4-1.1c0.5-0.3,1.1-0.5,1.6-0.5c0.8,0,1.5,0.2,2.2,0.5c0.6,0.3,1.2,0.6,1.5,0.8c2,1.3,4,1.9,6,1.9
			c1.2,0,2.2-0.1,2.9-0.4c0.7-0.3,1-0.8,1-1.6c0-0.8-0.4-1.5-1.3-2c-0.9-0.5-1.9-1-3.2-1.5c-1.3-0.5-2.7-0.9-4.2-1.5
			c-1.5-0.6-2.9-1.3-4.2-2.2c-1.3-0.9-2.4-2-3.2-3.3c-0.9-1.3-1.3-3-1.3-5.1c0-1.6,0.3-3.1,1-4.5c0.7-1.4,1.7-2.6,2.9-3.6
			c1.3-1,2.7-1.8,4.5-2.4c1.7-0.6,3.6-0.9,5.7-0.9c3,0,5.4,0.4,7.2,1.1c1.8,0.7,3.3,1.6,4.5,2.7c0.7,0.6,1.1,1.3,1.4,2
			c0.3,0.7,0.4,1.4,0.4,1.9c0,0.5-0.1,1.1-0.3,1.6c-0.2,0.6-0.5,1.1-0.8,1.5c-0.4,0.5-0.8,0.8-1.3,1.1c-0.5,0.3-1.1,0.5-1.7,0.5
			c-0.5,0-1.1-0.1-1.7-0.4c-0.6-0.3-1.2-0.6-1.8-1c-0.6-0.4-1.3-0.8-2.2-1.1c-0.9-0.4-2-0.6-3.3-0.6c-1,0-1.8,0.2-2.4,0.5
			c-0.6,0.3-0.9,0.7-0.9,1.3c0,0.7,0.4,1.2,1.3,1.7c0.9,0.5,1.9,0.9,3.1,1.3c1.2,0.4,2.5,0.9,3.9,1.4c0.1,0,0.6,0.2,1.5,0.5
			c0.8,0.3,1.9,0.9,3.2,1.8c1.3,0.9,2.4,2,3.2,3.2c0.9,1.3,1.3,2.9,1.3,4.9c0,1.8-0.4,3.4-1.1,4.9c-0.7,1.5-1.7,2.8-3,3.9
			c-1.3,1.1-2.9,2-4.7,2.6c-1.8,0.6-3.8,0.9-6,0.9c-3,0-5.5-0.4-7.6-1.1C122.2,49.4,120.6,48.5,119.3,47.3z M13,47.9
			c-0.5,1.3-1.2,2.2-2.1,2.8C10,51.2,9,51.4,7.7,51.4C6,51.4,4.6,51,3.5,50c-1-0.9-1.5-2.2-1.5-3.7c0-0.6,0-1.2,0.1-1.7
			c0.1-0.5,0.3-0.9,0.4-1.3L19,5.2c0.6-1.5,1.5-2.6,2.5-3.5c1-0.8,2.4-1.3,4-1.3c1.6,0,3,0.4,4,1.3c1.1,0.8,1.9,2,2.5,3.5l16.4,38.1
			c0.3,0.7,0.5,1.5,0.5,2.4c0,1.7-0.6,3.1-1.7,4.1c-1.2,1-2.6,1.5-4.3,1.5c-1.4,0-2.5-0.3-3.3-0.9c-0.8-0.6-1.5-1.5-1.9-2.6L35,41.2
			H15.6L13,47.9z M171,13.7c10,0,18.1,7.8,18.8,17.6c0,0.3,0.1,0.5,0.1,0.8v15.3c0,2.3-1.3,4.1-3,4.1h-2.2c-1.5,0-2.7-1.5-2.9-3.5
			c-3.1,2.1-6.8,3.4-10.8,3.4c-10.4,0-18.9-8.4-18.9-18.9S160.6,13.7,171,13.7z M206.5,26l9.4-9.7c1-1,2-1.8,2.9-2.3
			c0.9-0.5,1.8-0.7,2.8-0.7c1.3,0,2.4,0.4,3.3,1.3c0.9,0.8,1.4,1.9,1.4,3c0,0.9-0.2,1.8-0.7,2.7c-0.5,0.9-1.2,1.7-2,2.6l-7.9,8.7
			l9.3,10.4c0.8,0.9,1.3,1.8,1.6,2.6c0.3,0.9,0.5,1.7,0.5,2.7c0,1.3-0.5,2.4-1.5,3.2c-1,0.9-2.2,1.3-3.7,1.3c-1.1,0-2.1-0.3-3-0.8
			c-0.9-0.6-1.8-1.5-2.7-2.6l-9.4-10.8l-0.1,5.9c-0.1,2.7-0.5,4.8-1.4,6.1c-0.9,1.4-2.3,2-4.2,2c-1.9,0-3.2-0.7-4.1-2
			c-0.9-1.4-1.4-3.4-1.4-6.1V8c0-2.7,0.5-4.8,1.4-6.1c0.9-1.3,2.3-2,4.1-2c1.9,0,3.2,0.7,4.2,2c0.9,1.3,1.4,3.4,1.4,6V26z M242,15.4
			c13.4-5.6,28,1.2,28,12.5v15.8c0,2.7,0,4.7-0.9,6c-0.9,1.3-2.3,2-4.2,2c-1.9,0-3.3-0.7-4.2-2c-0.9-1.3-1.4-3.3-1.4-6V31.2
			c0-2.4-2-8.1-8.6-8.1c-6.5,0-8.9,4.5-8.9,8v12.6c0,2.7-0.5,4.7-1.4,6c-0.9,1.3-2.3,2-4.2,2c-1.9,0-3.2-0.7-4.1-2
			c-0.9-1.3-1.4-3.3-1.4-6V8.3c0-2.7,0.5-4.8,1.4-6.1c0.9-1.3,2.3-2,4.1-2c1.9,0,3.2,0.7,4.2,2c0.9,1.3,1.4,3.4,1.4,6V15.4z
			 M62.9,32.1v16.6c0,1.6-1.3,2.8-2.8,2.8h-3.9c-1.6,0-2.8-1.3-2.8-2.8V32.1c-0.2-11,4.1-17.4,13.8-18.4h5.5c1.7,0,4.6,1.6,4.6,3.5
			v2.7c0,1.9-1.8,3.2-3.5,3.3l-3.6,0.1C65.3,23.4,62.9,26.4,62.9,32.1z"/>
	</defs>
	<clipPath id="SVGID_2_">
		<use xlink:href="#SVGID_1_"  style="overflow:visible;"/>
	</clipPath>
	<linearGradient id="SVGID_3_" gradientUnits="userSpaceOnUse" x1="-23.9585" y1="25.8931" x2="259.683" y2="25.8931">
		<stop  offset="0" style="stop-color:#EC1C24"/>
		<stop  offset="1" style="stop-color:#FFCA05"/>
	</linearGradient>
	<rect x="2" class="st1" width="268" height="51.8"/>
</g>
<polygon class="st2" points="168.9,20.9 171.6,20.9 171.6,23.6 175.1,23.6 175.1,27.5 179.3,27.5 179.3,31.3 182,31.3 182,34 
	179.3,34 179.3,37.7 175.1,37.7 175.1,41.6 171.6,41.6 171.6,44.4 168.9,44.4 168.9,41.6 165,41.6 165,37.7 161.3,37.7 161.3,34 
	158.5,34 158.5,31.3 161.3,31.3 161.3,27.5 165,27.5 165,23.6 168.9,23.6 "/>
<polygon class="st3" points="168.9,20.9 171.6,20.9 171.6,23.6 175.1,23.6 175.1,27.5 179.3,27.5 179.3,31.3 182,31.3 182,34 
	179.3,34 179.3,37.7 175.1,37.7 175.1,41.6 171.6,41.6 171.6,44.4 168.9,44.4 168.9,41.6 165,41.6 165,37.7 161.3,37.7 161.3,34 
	158.5,34 158.5,31.3 161.3,31.3 161.3,27.5 165,27.5 165,23.6 168.9,23.6 "/>
<polygon class="st4" points="169,27.4 171.5,27.4 171.5,31.4 175.5,31.4 175.5,33.9 171.5,33.9 171.5,37.9 169,37.9 169,33.9 
	165,33.9 165,31.4 169,31.4 "/>
<path class="st5" d="M265.8,61.3c-0.3,0-0.7,0.2-1,0.7c-0.3,0.4-0.4,0.8-0.5,1.3l0.2,0.1c0.2,0,0.4-0.1,0.5-0.2l0.3-0.3
	c0.4-0.2,0.6-0.6,0.6-1.3L265.8,61.3z M263.5,68.9c0-0.1-0.1-0.2-0.1-0.2c0-0.1-0.1-0.2-0.3-0.3c-0.1-0.1-0.3-0.5-0.5-0.9l-0.4-1
	l-0.3-1.1l0-0.5L262,64l0.2-0.8l0.2-0.8l0.4-0.9c0.2-0.5,0.4-0.8,0.6-0.9c0.3-0.4,0.8-0.9,1.6-1.5c0.1-0.3,0.5-0.5,1.3-0.6
	c0.5,0,1,0.2,1.5,0.5c0.2,0.1,0.4,0.4,0.5,1.1c0.1,0.7,0.1,1.1-0.1,1.2l-0.1,0.4l-0.3,0.5c-0.1,0.3-0.5,0.8-1,1.5
	c-0.3,0.4-0.7,0.7-1,0.9l-0.4,0.5l-0.5,0.4l-0.1,0.4c0.2,0.4,0.4,0.8,0.7,1.1c0.1,0.1,0.6,0.2,1.4,0.5c1.2,0,2.3-0.4,3.2-1.4
	c0.1,0,0.3-0.1,0.5-0.4c0.2-0.3,0.3-0.4,0.5-0.5c0.1,0,0.2,0.1,0.3,0.4l0,0.3c0.1,0.7,0.1,1.2,0,1.4l-1.4,1l-1.5,1.1l-0.7,0.2
	l-0.8,0.1l-0.8,0.2l-0.5-0.1C264.9,69.7,264.3,69.4,263.5,68.9z M251.9,67l-0.1-0.4l-0.2-1.1l0.3-0.4l0.3-0.6c0,0,0-0.2,0.1-0.4
	l0.6-0.9l0.3-0.6c0.1-0.3,0.2-0.4,0.3-0.6l-0.1-0.2l-0.1-0.2l-0.1-0.2l-0.1-0.2l0.4-0.4l0.5-0.4c0.3-0.4,0.6-0.6,1.1-0.6
	c0.6,0,1.3,0.3,2.1,1c0.1,0.1,0.2,0.2,0.4,0.3l0.5,0.7c0.5,0.4,0.9,1.3,1.1,2.5c0,0.2,0,0.8-0.1,1.8l-0.2,1.6l0.1,0.1l0.1,0.1
	c0.2,0,0.5-0.1,0.8-0.4l1-0.9l0.8-0.8l0.1-0.3l0.1-0.1c0.1,0,0.1,0.1,0.2,0.3l0,0.2c0.2,0.1,0.3,0.4,0.4,0.9l-0.2,0.4
	c-0.1,0.2-0.1,0.4-0.2,0.6c-0.1,0-0.5,0.3-1.1,0.8l-1.1,1l-0.9,0.5l-0.8,0.5l-0.5,0.1c-0.4,0-0.7,0-0.9-0.1c-0.1,0-0.3-0.2-0.6-0.6
	l0-0.9l0.4-2.9l-0.1-1.4c-0.2-1.1-0.6-1.7-1.3-1.8c-0.3,0.1-0.5,0.2-0.8,0.5l-1.2,1.9l-0.3,0.3l-0.6,0.8l-0.3,0.5l-0.1,0.1l-0.1,0.1
	L251.9,67z M241.7,69.9c-0.2-0.1-0.5-0.3-0.7-0.7l-0.2-0.6l-0.2-0.5l-0.4-1.2l-0.1-0.5L240,66l-0.6,0.4l-0.5,0.6l-0.2,0.3l-0.2,0.2
	l-0.2,0.1l-0.2-0.4l-0.1-0.7c-0.1-0.5,0-0.9,0.2-1.1l0.6-0.6l0.5-0.8l1-1.9l0.8-1.7c0.4-0.4,0.9-0.7,1.5-0.7c0.3,0,0.4,0.2,0.5,0.7
	l0,0.4l0,0.6l-0.1,0.7c0,0.1,0,0.3-0.1,0.7l-0.2,1.2l0,0.9l0.1,0.8l0.1,0.7c0.1,0.7,0.3,1.2,0.5,1.4l0.2,0l0.2-0.1l0.3-0.2l0.2-0.2
	l0.7-1l0.6-0.9l0.5-1.1c0.1-0.2,0.2-0.4,0.4-0.7c0.3-0.7,0.7-1,1.3-1c0.7,0,1.1,0.6,1.3,1.7c0.2,1.3,0.7,1.9,1.3,1.9
	c0.1,0,0.3-0.1,0.5-0.2l0.5-0.4l0.4-0.4c0.1,0,0.2,0.3,0.4,1l0.1,0.4c0.1,0.5-0.2,1-0.9,1.4c-0.6,0.4-1.2,0.6-1.8,0.6
	c-0.5,0-0.9-0.1-1.2-0.3c-0.2-0.1-0.5-0.3-0.7-0.6l-0.5-0.9l-0.2-0.3l-0.1-0.1l-0.2,0.2l-0.2,0.3l-0.5,0.8l-0.6,0.9l-0.7,0.9
	c0,0.1-0.3,0.3-0.7,0.6l-0.6,0.2l-0.5,0.1C242.6,70.2,242.3,70.1,241.7,69.9z M228.9,67.3l0-0.4l-0.2-0.6l-0.1-0.6
	c-0.1-0.2,0-0.4,0.1-0.7l0.7-0.7l0.6-0.6l1-1.4c0.1,0,0.1,0,0.2-0.1l0.2-0.2l0.6-0.7l0.4-0.7l0.5-0.6l0.5-0.5
	c0.1-0.1,0.3-0.2,0.6-0.3c1.1,0,1.7,0.5,1.9,1.5c0.1,0.5,0.1,0.9,0.1,1.1l0.1,0.3c0.1,0.6,0.1,1.1,0.1,1.4l-0.3,2
	c-0.1,0.9-0.2,1.6-0.2,2.2l0.1,0.2c0.1,0,0.4-0.2,0.9-0.7l0.7-0.7c0.4-0.8,0.7-1.3,0.9-1.3l0.1,0.1l0,0.2l0,0.3l0.4,1.1
	c0,0.1-0.1,0.3-0.3,0.6l-0.3,0.5l-0.4,0.6l-0.7,0.5l-1.4,1.1c-0.4,0.3-0.7,0.7-0.9,1.2l-0.6,0.3l-0.2,0.2l-0.2,0.2
	c-0.2,0-0.4-0.1-0.5-0.2l-0.2-0.5c-0.4-0.6-0.8-1.5-1-2.7l-0.1-0.2l-0.1-0.2c-0.1-0.6,0.2-1,1-1.2c0.2,0.1,0.3,0.2,0.4,0.3l0.2,0.3
	l0.1-0.1l0.1-0.4c0-0.2,0-0.5,0.1-0.8l-0.2-2.2l-0.1-0.4c0-0.1-0.1-0.2-0.3-0.3l-0.3-0.1l-0.3,0.2l-0.4,0.4l-0.3,0.4
	c-1,0.9-1.7,1.5-2,2.1l-0.5,0.8L228.9,67.3z M216.7,67.1l-0.2-0.9c-0.2-0.7,0.4-1.7,1.6-2.8c0-0.2,0.2-0.5,0.5-0.8l1-1.1l2.2-2.1
	l0.9-0.7c0.1-0.2,0.4-0.3,0.8-0.5c0.3-0.2,0.6-0.3,1.1-0.3c0.2,0,0.5,0.3,0.8,0.6c0.1,0.7-0.2,1.2-0.9,1.6c-0.1,0.2-0.5,0.7-1.1,1.4
	c-0.1,0.1-0.3,0.4-0.8,0.9c-0.1,0.1-0.2,0.2-0.3,0.3l-0.3,0.6l-0.3,0.3l-0.2,0.2c-0.1,0.3-0.4,0.7-0.8,1.2l-0.7,0.8l-0.1,0.4
	l-0.1,0.2l-0.1,0.2c0.4,0,0.7-0.1,1-0.4l1-1.1c0.3-0.3,0.6-0.6,1-1c0.1-0.3,0.3-0.5,0.4-0.7l0.4-0.5c0.4-0.3,0.9-0.5,1.5-0.5
	c0.2,0,0.3,0.1,0.4,0.2l0.3,0.5l0.2,0.6l0,1c0.1,0.4,0.2,0.7,0.5,1c0.2,0.2,0.5,0.3,0.9,0.4c0.5-0.1,0.9-0.4,1.3-0.9l0.1,0.1
	l0.1,0.4l0.1,0.5c0,0.2,0,0.3-0.1,0.4c0.1,0.3,0,0.6-0.1,0.9l-0.5,0.6l-0.7,0.4c-0.1,0.1-0.4,0.2-0.8,0.3l-0.2-0.1l-0.2-0.1
	l-0.5,0.1c-0.3,0-0.7-0.2-1.2-0.6c-0.3-0.3-0.6-0.7-0.7-1l-0.2-0.6l-0.2-0.5l-0.1-0.2l-0.5,0.4l-0.5,0.7l-0.1,0.2l-0.2,0.1
	c-0.4,0.7-0.8,1.2-1.2,1.4c-0.1,0.3-0.3,0.6-0.8,1c-0.5,0.3-0.9,0.5-1.2,0.6l-0.5,0.2c-0.8,0-1.3-0.5-1.7-1.5l0-0.3
	c0-0.1,0-0.3,0-0.5l0.1-0.4c0,0,0,0,0-0.1C216.9,67.3,216.8,67.2,216.7,67.1z M211.3,61.3c-0.3,0-0.7,0.2-1,0.7
	c-0.3,0.4-0.4,0.8-0.5,1.3l0.2,0.1c0.2,0,0.4-0.1,0.5-0.2l0.3-0.3c0.4-0.2,0.6-0.6,0.6-1.3L211.3,61.3z M209,68.9
	c0-0.1-0.1-0.2-0.1-0.2c0-0.1-0.1-0.2-0.3-0.3c-0.1-0.1-0.3-0.5-0.5-0.9l-0.4-1l-0.3-1.1l0-0.5l0.1-0.7l0.2-0.8l0.2-0.8l0.4-0.9
	c0.2-0.5,0.4-0.8,0.6-0.9c0.3-0.4,0.8-0.9,1.6-1.5c0.1-0.3,0.5-0.5,1.3-0.6c0.5,0,1,0.2,1.5,0.5c0.2,0.1,0.4,0.4,0.5,1.1
	c0.1,0.7,0.1,1.1-0.1,1.2l-0.1,0.4l-0.3,0.5c-0.1,0.3-0.5,0.8-1,1.5c-0.3,0.4-0.7,0.7-1,0.9l-0.4,0.5l-0.5,0.4l-0.1,0.4
	c0.2,0.4,0.4,0.8,0.7,1.1c0.1,0.1,0.6,0.2,1.4,0.5c1.2,0,2.3-0.4,3.2-1.4c0.1,0,0.3-0.1,0.5-0.4c0.2-0.3,0.3-0.4,0.5-0.5
	c0.1,0,0.2,0.1,0.3,0.4l0,0.3c0.1,0.7,0.1,1.2,0,1.4l-1.4,1l-1.5,1.1l-0.7,0.2l-0.8,0.1l-0.8,0.2l-0.5-0.1
	C210.4,69.7,209.8,69.4,209,68.9z M197.4,67l-0.1-0.4l-0.2-1.1l0.3-0.4l0.3-0.6c0,0,0-0.2,0.1-0.4l0.6-0.9l0.3-0.6
	c0.1-0.3,0.2-0.4,0.3-0.6l-0.1-0.2l-0.1-0.2l-0.1-0.2l-0.1-0.2l0.4-0.4l0.5-0.4c0.3-0.4,0.6-0.6,1.1-0.6c0.6,0,1.3,0.3,2.1,1
	c0.1,0.1,0.2,0.2,0.4,0.3l0.5,0.7c0.5,0.4,0.9,1.3,1.1,2.5c0,0.2,0,0.8-0.1,1.8l-0.2,1.6l0.1,0.1l0.1,0.1c0.2,0,0.5-0.1,0.8-0.4
	l1-0.9l0.8-0.8l0.1-0.3l0.1-0.1c0.1,0,0.1,0.1,0.2,0.3l0,0.2c0.2,0.1,0.3,0.4,0.4,0.9l-0.2,0.4c-0.1,0.2-0.1,0.4-0.2,0.6
	c-0.1,0-0.5,0.3-1.1,0.8l-1.1,1l-0.9,0.5l-0.8,0.5l-0.5,0.1c-0.4,0-0.7,0-0.9-0.1c-0.1,0-0.3-0.2-0.6-0.6l0-0.9l0.4-2.9l-0.1-1.4
	c-0.2-1.1-0.6-1.7-1.3-1.8c-0.3,0.1-0.5,0.2-0.8,0.5l-1.2,1.9l-0.3,0.3l-0.6,0.8l-0.3,0.5l-0.1,0.1l-0.1,0.1L197.4,67z M191.8,69.3
	c-0.3-2.8-0.3-4.7-0.1-5.6l0-0.2l-0.1,0l-0.4,0.7l-0.5,0.7l-1.1,1.3l-1.2,1.4l-0.1-0.5l-0.2-0.8c-0.1-0.5,0-0.9,0.3-1.2
	c0.1-0.1,0.2-0.2,0.3-0.4l0.5-0.7l1.2-2.3l1-2c0.1-0.2,0.2-0.5,0.3-0.9c0-0.2,0.1-0.3,0.1-0.6h-0.4l-1.4,0l-1.4,0l-0.1,0h-0.1
	c-0.8,0-1.3-0.2-1.4-0.6c-0.2-0.9-0.2-1.4-0.2-1.6c0.1-0.4,0.5-0.6,1.2-0.6l2.8,0.1l0.1,0l0.2,0l0.6-0.1c0.1,0,0.2,0,0.3,0l0.1,0.1
	c0.4-0.1,0.7-0.3,0.8-0.7l0.5-1.3c0.2-0.5,0.4-0.9,0.7-1l0.3,0l0.1,0.1c0.4,0.1,0.6,0.4,0.7,0.8l0.1,0.6l-0.1,0.6L195,55
	c0,0.2,0.1,0.3,0.3,0.5c0.1,0,0.2,0.1,0.3,0.3l0.1,1.1l0.2,0.9c0,0.1,0,0.2-0.2,0.3l-0.6,0.1c-0.2,0-0.3,0-0.5,0.1
	c-0.1,0.1-0.1,0.3-0.1,0.7l-0.3,3.1l-0.2,2.9l0,1.2l0.1,1c0,0.1,0.1,0.3,0.1,0.4l0.1,0.2c0.3,0,0.6-0.1,0.8-0.3l0.7-0.8l0.6-0.7
	l0.6-0.6l0.4-0.3c0.1,0,0.2,0.2,0.3,0.5c0.1,0.5,0.1,0.9,0,1.3c0,0.2-0.3,0.5-0.7,1.1l-0.4,0.5l-0.4,0.5l-0.4,0.3
	c-1.1,1.4-1.9,2.1-2.3,2.2c-1-0.4-1.5-0.9-1.8-1.6L191.8,69.3z M166.1,70.6c0,0.3-0.4,0.4-1.1,0.4c-0.4,0-0.6,0-0.7-0.1l-0.2-0.3
	l0-0.4l-0.1-0.3l0-1l0.1-0.8l0-0.6l0.2-0.7l0-0.7l0-0.4c0.1-0.2,0.1-0.4,0.1-0.8c0-0.1-0.1-0.2-0.3-0.3c-0.3,0-0.5,0.1-0.6,0.4
	l-0.7,1l-0.7,0.9l-0.3,0.3l-0.2,0.2l-0.1-0.2l-0.1-0.8l-0.1-0.8c0-0.3,0-0.6,0.2-0.7c0.1-0.3,0.2-0.5,0.3-0.7l0.7-1.1l1.5-2
	c0.6-0.7,1.1-1.1,1.8-1.1c0.7,0,1.2,0.5,1.4,1.6c0,0.1,0,0.3,0.1,0.6c0,0.1,0,0.4,0,0.9l-0.1,0.7l-0.2,1.5l-0.1,1v0.5l0.2-0.1
	l0.2-0.4l0.3-0.5c0.2-0.4,0.6-0.8,1.2-1.4l0.5-0.8l0.8-0.7c0.2-0.2,0.6-0.3,1.1-0.3c0.3,0,0.7,0,1,0.2l0.5,0.6l0.6,0.7l0.6,1
	c0.3,0.5,0.5,0.8,0.8,0.9l0.3,0.2l0.2,0.1c0.2-0.3,0.6-0.6,1.2-1.1c0.2,1,0.3,1.6,0.4,1.8c-0.8,1.3-1.6,2-2.4,2
	c-0.2,0-0.5-0.1-0.9-0.3c-0.4-0.3-0.6-0.6-0.8-0.8l-0.7-0.9c-0.2-0.3-0.5-0.5-0.7-0.7c-0.2-0.4-0.5-0.6-0.8-0.6
	c-0.1,0-0.4,0.3-1,0.8l-1.2,1.2c0,0.3-0.2,0.6-0.5,1l-0.9,1.2L166.1,70.6z M156.3,61.3c-0.3,0-0.7,0.2-1,0.7
	c-0.3,0.4-0.4,0.8-0.5,1.3l0.2,0.1c0.2,0,0.4-0.1,0.5-0.2l0.3-0.3c0.4-0.2,0.6-0.6,0.6-1.3L156.3,61.3z M154,68.9
	c0-0.1-0.1-0.2-0.1-0.2c0-0.1-0.1-0.2-0.3-0.3c-0.1-0.1-0.3-0.5-0.5-0.9l-0.4-1l-0.3-1.1l0-0.5l0.1-0.7l0.2-0.8l0.2-0.8l0.4-0.9
	c0.2-0.5,0.4-0.8,0.6-0.9c0.3-0.4,0.8-0.9,1.6-1.5c0.1-0.3,0.5-0.5,1.3-0.6c0.5,0,1,0.2,1.5,0.5c0.2,0.1,0.4,0.4,0.5,1.1
	c0.1,0.7,0.1,1.1-0.1,1.2l-0.1,0.4l-0.3,0.5c-0.1,0.3-0.5,0.8-1,1.5c-0.3,0.4-0.7,0.7-1,0.9l-0.4,0.5l-0.5,0.4l-0.1,0.4
	c0.2,0.4,0.4,0.8,0.7,1.1c0.1,0.1,0.6,0.2,1.4,0.5c1.2,0,2.3-0.4,3.2-1.4c0.1,0,0.3-0.1,0.5-0.4c0.2-0.3,0.3-0.4,0.5-0.5
	c0.1,0,0.2,0.1,0.3,0.4l0,0.3c0.1,0.7,0.1,1.2,0,1.4l-1.4,1l-1.5,1.1l-0.7,0.2l-0.8,0.1l-0.8,0.2l-0.5-0.1
	C155.4,69.7,154.7,69.4,154,68.9z M144.5,63.8l1.1-2.3l-0.1-1.1l-0.7,0.7l-0.4,0.6l-0.3,0.4c-0.2,0.3-0.4,0.6-0.6,0.9l-0.8,1.5
	c-0.6,1.1-0.8,2-0.7,2.6c0.1,0,0.2-0.1,0.4-0.2l0.5-0.6l0.3-0.4L144.5,63.8z M141.9,70c-0.4,0.3-0.7,0.4-1,0.4
	c-0.9,0-1.5-0.4-1.8-1.1l-0.1-0.5c0-0.1,0-0.4,0-0.6l0.1-0.7l0.2-0.6l-0.3-0.1l-0.2,0.1l-0.2,0.3l-0.2,0.2l-0.1-0.1l-0.1-0.1l0-0.5
	l0.1-0.3l-0.1-0.2l-0.1-0.3c-0.1-0.5,0.4-1.1,1.5-1.9l0.7-1l0.8-1c0.2-0.2,0.4-0.4,0.8-0.6l0.3-0.5l0.4-0.5l1.5-1.6l0.4-0.3l0.3-0.3
	l0.5-0.2c0-0.1,0.1-0.2,0.2-0.6c0.1-0.4,0.2-0.9,0.3-1.4l0.3-2l1-3.4c0.1-0.3,0.2-0.6,0.2-0.7c0-0.1,0.2-0.3,0.4-0.5
	c0.2-0.3,0.5-0.6,0.8-0.8h0.2c0.4,0,0.7,0.4,0.9,1.2c0.2,0.8,0.1,1.5-0.1,2.1c0.1,0.3,0.1,0.6,0,0.8l-0.2,1l-0.1,0.7
	c0.1,0.6,0,1.4-0.5,2.2c0,0.5-0.1,1-0.3,1.3c0,0.2,0,0.5-0.1,0.7l-0.4,1c-0.2,0.5-0.2,1.2,0,2.1c0.4,2.5,1.4,3.8,2.9,4l1.8-0.8
	l0.1,0.1l0.1,0.1l0,0.3l0,0.3l0.2,0.5l0.2,0.6c-0.4,0.6-1.2,1.1-2.3,1.3c-0.3,0.1-0.6,0.1-1,0.1c-1.6-0.4-2.7-1.2-3.1-2.5l-0.4-0.6
	l-0.2-0.5l-0.1-0.2c-0.2,0-0.4,0.2-0.6,0.5l-0.4,0.8l-0.1,0.5l-1.9,2.8l-0.4,0.4C142.4,69.6,142.2,69.8,141.9,70z M130.4,63.8
	l1.1-2.3l-0.1-1.1l-0.7,0.7l-0.4,0.6l-0.3,0.4c-0.2,0.3-0.4,0.6-0.6,0.9l-0.8,1.5c-0.6,1.1-0.8,2-0.7,2.6c0.1,0,0.2-0.1,0.4-0.2
	l0.5-0.6l0.3-0.4L130.4,63.8z M127.8,70c-0.4,0.3-0.7,0.4-1,0.4c-0.9,0-1.5-0.4-1.8-1.1l-0.1-0.5c0-0.1,0-0.4,0-0.6l0.1-0.7l0.2-0.6
	l-0.3-0.1l-0.2,0.1l-0.2,0.3l-0.2,0.2l-0.1-0.1l-0.1-0.1l0-0.5l0.1-0.3l-0.1-0.2l-0.1-0.3c-0.1-0.5,0.4-1.1,1.5-1.9l0.7-1l0.8-1
	c0.2-0.2,0.4-0.4,0.8-0.6l0.3-0.5l0.4-0.5l1.5-1.6l0.4-0.3l0.3-0.3l0.5-0.2c0-0.1,0.1-0.2,0.2-0.6c0.1-0.4,0.2-0.9,0.3-1.4l0.3-2
	l1-3.4c0.1-0.3,0.2-0.6,0.2-0.7c0-0.1,0.2-0.3,0.4-0.5c0.2-0.3,0.5-0.6,0.8-0.8h0.2c0.4,0,0.7,0.4,0.9,1.2c0.2,0.8,0.1,1.5-0.1,2.1
	c0.1,0.3,0.1,0.6,0,0.8l-0.2,1l-0.1,0.7c0.1,0.6,0,1.4-0.5,2.2c0,0.5-0.1,1-0.3,1.3c0,0.2,0,0.5-0.1,0.7l-0.4,1
	c-0.2,0.5-0.2,1.2,0,2.1c0.4,2.5,1.4,3.8,2.9,4l1.8-0.8l0.1,0.1l0.1,0.1l0,0.3l0,0.3l0.2,0.5l0.2,0.6c-0.4,0.6-1.2,1.1-2.3,1.3
	c-0.3,0.1-0.6,0.1-1,0.1c-1.6-0.4-2.7-1.2-3.1-2.5l-0.4-0.6l-0.2-0.5l-0.1-0.2c-0.2,0-0.4,0.2-0.6,0.5l-0.4,0.8l-0.1,0.5l-1.9,2.8
	l-0.4,0.4C128.3,69.6,128.1,69.8,127.8,70z M115.2,66.7l-0.1-0.7l-0.1-0.6l0.5-0.6c0.1-0.3,0.3-0.5,0.6-0.7c0-0.1,0.2-0.4,0.5-0.9
	c0.3-0.4,0.5-0.7,0.7-0.9c0.1-0.3,0.3-0.6,0.5-0.8c0.8,0,1.5,0.3,2,0.9l0.4,1.4c0.1,0.5,0.2,0.8,0.2,1l0.5,1
	c0.3,0.4,0.6,0.7,1.1,0.7l0.4-0.1l0.7-0.3c0-0.2,0.1-0.4,0.3-0.5l0.4-0.3l0.3-0.2l0.1,1l0.1,0.9c-0.3,0.9-1.3,1.6-3,2.1l-0.7-0.2
	l-0.6-0.3c-0.1,0-0.3-0.2-0.5-0.4c-0.2-0.2-0.4-0.5-0.6-0.9l-0.4-0.7l-0.6-0.8c-0.2-0.4-0.4-0.6-0.7-0.7c-0.2,0-0.4,0.2-0.7,0.5
	l-0.7,0.9c-0.1,0-0.2,0.1-0.4,0.3l-0.2,0.3L115.2,66.7z M116.8,55.9c-0.1-0.5,0-0.9,0.3-1.3c0.2-0.4,0.6-0.7,1-0.9
	c0-0.3,0.2-0.4,0.4-0.6c0.4-0.2,0.9-0.4,1.3-0.4c0.3,0.1,0.4,0.2,0.5,0.4c0.1,1.1,0,1.8-0.1,2c0,0.2,0,0.3,0,0.5
	c0,0.1-0.1,0.2-0.2,0.5c-0.2,0.3-0.5,0.5-0.8,0.7l-0.5,0.3c-0.3,0-0.5,0-0.6,0.1c-0.4,0-0.7-0.1-0.8-0.3l0.1-0.1
	C117,56.4,116.8,56.1,116.8,55.9z M106.4,59.4c0,0.2,0.1,0.4,0,0.6l-0.1,1l-0.1,1.7l0,0.4l0.2,0.8l0,0.9l0.1,0.8l0.5-0.4l0.9-0.9
	l0.5-0.8c0.1-0.2,0.4-0.4,0.7-0.8c0.2-0.2,0.6-0.3,1.1-0.3c0.4,0,0.7,0.1,1,0.2l0.5,0.6l0.5,0.7l0.6,1c0.3,0.5,0.5,0.8,0.8,0.9
	l0.3,0.2l0.2,0.1c0.1,0,0.2-0.1,0.2-0.2c0.2-0.2,0.5-0.5,0.9-0.9c0.2,1.1,0.4,1.7,0.5,1.8c-0.8,1.3-1.6,2-2.4,2
	c-0.4-0.1-0.7-0.2-0.9-0.3c-0.2-0.2-0.5-0.5-0.8-0.8l-0.8-0.9c-0.2-0.3-0.4-0.5-0.7-0.7c-0.2-0.4-0.5-0.6-0.8-0.6
	c-0.1,0-0.4,0.3-1,0.8l-1.2,1.2c0,0.3-0.2,0.6-0.5,1l-0.9,1.2l-0.4,0.4c0,0-0.2,0.1-0.5,0.2c-0.2,0-0.5-0.3-0.7-0.8l-0.2-1.5
	l-0.1-1.1l-0.1-0.4l-0.1,0.1l-0.1,0.4l-0.2,0.3l-0.2,0.2l-0.2,0.1l-0.2-0.4l-0.1-0.7c-0.1-0.4,0-0.8,0.3-1.2
	c0.3-0.5,0.5-0.9,0.6-1.1l0-1.8l0.1-1.5l0.1-1.1c0.1-0.3,0.1-0.5,0.1-0.8l0-0.6l0.2-1.1l0.1-1.2c0-0.7,0.1-1.1,0.1-1.2l0.7-4.7
	c0-0.3,0.2-0.6,0.6-0.8l0.3,0l0.2,0.1c0.2,0,0.4,0.1,0.6,0.3c0.2,0.1,0.3,0.2,0.4,0.4l0.2,0.6l0.2,0.5l0.3,0.9l0.1,0.8
	c0,0.3,0,0.5,0,0.6l-0.2,0.8l-0.4,2c-0.1,0.1-0.3,0.7-0.5,1.7C106.7,57.9,106.6,58.5,106.4,59.4z M78.6,67.1l-0.2-0.9
	c-0.2-0.7,0.3-1.7,1.6-2.8c0-0.2,0.2-0.5,0.5-0.8l1-1.1l2.2-2.1l0.9-0.7c0.1-0.2,0.4-0.3,0.8-0.5c0.3-0.2,0.6-0.3,1.1-0.3
	c0.2,0,0.5,0.3,0.8,0.6c0.1,0.7-0.2,1.2-0.9,1.6c-0.1,0.2-0.5,0.7-1.1,1.4c-0.1,0.1-0.3,0.4-0.8,0.9c-0.1,0.1-0.2,0.2-0.3,0.3
	l-0.3,0.6l-0.3,0.3l-0.2,0.2c-0.1,0.3-0.4,0.7-0.8,1.2l-0.7,0.8l-0.1,0.4l-0.1,0.2l-0.1,0.2c0.4,0,0.7-0.1,1-0.4l1-1.1
	c0.3-0.3,0.6-0.6,1-1c0.1-0.3,0.3-0.5,0.4-0.7l0.4-0.5c0.4-0.3,0.9-0.5,1.5-0.5c0.2,0,0.3,0.1,0.4,0.2l0.3,0.5l0.2,0.6l0,1
	c0.1,0.4,0.2,0.7,0.5,1c0.2,0.2,0.5,0.3,0.9,0.4c0.5-0.1,0.9-0.4,1.3-0.9l0.1,0.1l0.1,0.4l0.1,0.5c0,0.2,0,0.3-0.1,0.4
	c0.1,0.3,0,0.6-0.1,0.9L90.3,68l-0.7,0.4c-0.1,0.1-0.4,0.2-0.8,0.3l-0.2-0.1l-0.2-0.1l-0.5,0.1c-0.3,0-0.7-0.2-1.2-0.6
	c-0.3-0.3-0.6-0.7-0.7-1L86,66.4L85.8,66l-0.1-0.2l-0.5,0.4l-0.5,0.7l-0.1,0.2l-0.2,0.1c-0.4,0.7-0.8,1.2-1.2,1.4
	c-0.1,0.3-0.3,0.6-0.8,1c-0.5,0.3-0.9,0.5-1.2,0.6L80.5,70c-0.8,0-1.3-0.5-1.7-1.5l0-0.3c0-0.1,0-0.3,0-0.5l0.1-0.4c0,0,0,0,0-0.1
	C78.9,67.3,78.8,67.2,78.6,67.1z"/>
<path class="st6" d="M265.8,61.3c-0.3,0-0.7,0.2-1,0.7c-0.3,0.4-0.4,0.8-0.5,1.3l0.2,0.1c0.2,0,0.4-0.1,0.5-0.2l0.3-0.3
	c0.4-0.2,0.6-0.6,0.6-1.3L265.8,61.3z M263.5,68.9c0-0.1-0.1-0.2-0.1-0.2c0-0.1-0.1-0.2-0.3-0.3c-0.1-0.1-0.3-0.5-0.5-0.9l-0.4-1
	l-0.3-1.1l0-0.5L262,64l0.2-0.8l0.2-0.8l0.4-0.9c0.2-0.5,0.4-0.8,0.6-0.9c0.3-0.4,0.8-0.9,1.6-1.5c0.1-0.3,0.5-0.5,1.3-0.6
	c0.5,0,1,0.2,1.5,0.5c0.2,0.1,0.4,0.4,0.5,1.1c0.1,0.7,0.1,1.1-0.1,1.2l-0.1,0.4l-0.3,0.5c-0.1,0.3-0.5,0.8-1,1.5
	c-0.3,0.4-0.7,0.7-1,0.9l-0.4,0.5l-0.5,0.4l-0.1,0.4c0.2,0.4,0.4,0.8,0.7,1.1c0.1,0.1,0.6,0.2,1.4,0.5c1.2,0,2.3-0.4,3.2-1.4
	c0.1,0,0.3-0.1,0.5-0.4c0.2-0.3,0.3-0.4,0.5-0.5c0.1,0,0.2,0.1,0.3,0.4l0,0.3c0.1,0.7,0.1,1.2,0,1.4l-1.4,1l-1.5,1.1l-0.7,0.2
	l-0.8,0.1l-0.8,0.2l-0.5-0.1C264.9,69.7,264.3,69.4,263.5,68.9z M251.9,67l-0.1-0.4l-0.2-1.1l0.3-0.4l0.3-0.6c0,0,0-0.2,0.1-0.4
	l0.6-0.9l0.3-0.6c0.1-0.3,0.2-0.4,0.3-0.6l-0.1-0.2l-0.1-0.2l-0.1-0.2l-0.1-0.2l0.4-0.4l0.5-0.4c0.3-0.4,0.6-0.6,1.1-0.6
	c0.6,0,1.3,0.3,2.1,1c0.1,0.1,0.2,0.2,0.4,0.3l0.5,0.7c0.5,0.4,0.9,1.3,1.1,2.5c0,0.2,0,0.8-0.1,1.8l-0.2,1.6l0.1,0.1l0.1,0.1
	c0.2,0,0.5-0.1,0.8-0.4l1-0.9l0.8-0.8l0.1-0.3l0.1-0.1c0.1,0,0.1,0.1,0.2,0.3l0,0.2c0.2,0.1,0.3,0.4,0.4,0.9l-0.2,0.4
	c-0.1,0.2-0.1,0.4-0.2,0.6c-0.1,0-0.5,0.3-1.1,0.8l-1.1,1l-0.9,0.5l-0.8,0.5l-0.5,0.1c-0.4,0-0.7,0-0.9-0.1c-0.1,0-0.3-0.2-0.6-0.6
	l0-0.9l0.4-2.9l-0.1-1.4c-0.2-1.1-0.6-1.7-1.3-1.8c-0.3,0.1-0.5,0.2-0.8,0.5l-1.2,1.9l-0.3,0.3l-0.6,0.8l-0.3,0.5l-0.1,0.1l-0.1,0.1
	L251.9,67z M241.7,69.9c-0.2-0.1-0.5-0.3-0.7-0.7l-0.2-0.6l-0.2-0.5l-0.4-1.2l-0.1-0.5L240,66l-0.6,0.4l-0.5,0.6l-0.2,0.3l-0.2,0.2
	l-0.2,0.1l-0.2-0.4l-0.1-0.7c-0.1-0.5,0-0.9,0.2-1.1l0.6-0.6l0.5-0.8l1-1.9l0.8-1.7c0.4-0.4,0.9-0.7,1.5-0.7c0.3,0,0.4,0.2,0.5,0.7
	l0,0.4l0,0.6l-0.1,0.7c0,0.1,0,0.3-0.1,0.7l-0.2,1.2l0,0.9l0.1,0.8l0.1,0.7c0.1,0.7,0.3,1.2,0.5,1.4l0.2,0l0.2-0.1l0.3-0.2l0.2-0.2
	l0.7-1l0.6-0.9l0.5-1.1c0.1-0.2,0.2-0.4,0.4-0.7c0.3-0.7,0.7-1,1.3-1c0.7,0,1.1,0.6,1.3,1.7c0.2,1.3,0.7,1.9,1.3,1.9
	c0.1,0,0.3-0.1,0.5-0.2l0.5-0.4l0.4-0.4c0.1,0,0.2,0.3,0.4,1l0.1,0.4c0.1,0.5-0.2,1-0.9,1.4c-0.6,0.4-1.2,0.6-1.8,0.6
	c-0.5,0-0.9-0.1-1.2-0.3c-0.2-0.1-0.5-0.3-0.7-0.6l-0.5-0.9l-0.2-0.3l-0.1-0.1l-0.2,0.2l-0.2,0.3l-0.5,0.8l-0.6,0.9l-0.7,0.9
	c0,0.1-0.3,0.3-0.7,0.6l-0.6,0.2l-0.5,0.1C242.6,70.2,242.3,70.1,241.7,69.9z M228.9,67.3l0-0.4l-0.2-0.6l-0.1-0.6
	c-0.1-0.2,0-0.4,0.1-0.7l0.7-0.7l0.6-0.6l1-1.4c0.1,0,0.1,0,0.2-0.1l0.2-0.2l0.6-0.7l0.4-0.7l0.5-0.6l0.5-0.5
	c0.1-0.1,0.3-0.2,0.6-0.3c1.1,0,1.7,0.5,1.9,1.5c0.1,0.5,0.1,0.9,0.1,1.1l0.1,0.3c0.1,0.6,0.1,1.1,0.1,1.4l-0.3,2
	c-0.1,0.9-0.2,1.6-0.2,2.2l0.1,0.2c0.1,0,0.4-0.2,0.9-0.7l0.7-0.7c0.4-0.8,0.7-1.3,0.9-1.3l0.1,0.1l0,0.2l0,0.3l0.4,1.1
	c0,0.1-0.1,0.3-0.3,0.6l-0.3,0.5l-0.4,0.6l-0.7,0.5l-1.4,1.1c-0.4,0.3-0.7,0.7-0.9,1.2l-0.6,0.3l-0.2,0.2l-0.2,0.2
	c-0.2,0-0.4-0.1-0.5-0.2l-0.2-0.5c-0.4-0.6-0.8-1.5-1-2.7l-0.1-0.2l-0.1-0.2c-0.1-0.6,0.2-1,1-1.2c0.2,0.1,0.3,0.2,0.4,0.3l0.2,0.3
	l0.1-0.1l0.1-0.4c0-0.2,0-0.5,0.1-0.8l-0.2-2.2l-0.1-0.4c0-0.1-0.1-0.2-0.3-0.3l-0.3-0.1l-0.3,0.2l-0.4,0.4l-0.3,0.4
	c-1,0.9-1.7,1.5-2,2.1l-0.5,0.8L228.9,67.3z M216.7,67.1l-0.2-0.9c-0.2-0.7,0.4-1.7,1.6-2.8c0-0.2,0.2-0.5,0.5-0.8l1-1.1l2.2-2.1
	l0.9-0.7c0.1-0.2,0.4-0.3,0.8-0.5c0.3-0.2,0.6-0.3,1.1-0.3c0.2,0,0.5,0.3,0.8,0.6c0.1,0.7-0.2,1.2-0.9,1.6c-0.1,0.2-0.5,0.7-1.1,1.4
	c-0.1,0.1-0.3,0.4-0.8,0.9c-0.1,0.1-0.2,0.2-0.3,0.3l-0.3,0.6l-0.3,0.3l-0.2,0.2c-0.1,0.3-0.4,0.7-0.8,1.2l-0.7,0.8l-0.1,0.4
	l-0.1,0.2l-0.1,0.2c0.4,0,0.7-0.1,1-0.4l1-1.1c0.3-0.3,0.6-0.6,1-1c0.1-0.3,0.3-0.5,0.4-0.7l0.4-0.5c0.4-0.3,0.9-0.5,1.5-0.5
	c0.2,0,0.3,0.1,0.4,0.2l0.3,0.5l0.2,0.6l0,1c0.1,0.4,0.2,0.7,0.5,1c0.2,0.2,0.5,0.3,0.9,0.4c0.5-0.1,0.9-0.4,1.3-0.9l0.1,0.1
	l0.1,0.4l0.1,0.5c0,0.2,0,0.3-0.1,0.4c0.1,0.3,0,0.6-0.1,0.9l-0.5,0.6l-0.7,0.4c-0.1,0.1-0.4,0.2-0.8,0.3l-0.2-0.1l-0.2-0.1
	l-0.5,0.1c-0.3,0-0.7-0.2-1.2-0.6c-0.3-0.3-0.6-0.7-0.7-1l-0.2-0.6l-0.2-0.5l-0.1-0.2l-0.5,0.4l-0.5,0.7l-0.1,0.2l-0.2,0.1
	c-0.4,0.7-0.8,1.2-1.2,1.4c-0.1,0.3-0.3,0.6-0.8,1c-0.5,0.3-0.9,0.5-1.2,0.6l-0.5,0.2c-0.8,0-1.3-0.5-1.7-1.5l0-0.3
	c0-0.1,0-0.3,0-0.5l0.1-0.4c0,0,0,0,0-0.1C216.9,67.3,216.8,67.2,216.7,67.1z M211.3,61.3c-0.3,0-0.7,0.2-1,0.7
	c-0.3,0.4-0.4,0.8-0.5,1.3l0.2,0.1c0.2,0,0.4-0.1,0.5-0.2l0.3-0.3c0.4-0.2,0.6-0.6,0.6-1.3L211.3,61.3z M209,68.9
	c0-0.1-0.1-0.2-0.1-0.2c0-0.1-0.1-0.2-0.3-0.3c-0.1-0.1-0.3-0.5-0.5-0.9l-0.4-1l-0.3-1.1l0-0.5l0.1-0.7l0.2-0.8l0.2-0.8l0.4-0.9
	c0.2-0.5,0.4-0.8,0.6-0.9c0.3-0.4,0.8-0.9,1.6-1.5c0.1-0.3,0.5-0.5,1.3-0.6c0.5,0,1,0.2,1.5,0.5c0.2,0.1,0.4,0.4,0.5,1.1
	c0.1,0.7,0.1,1.1-0.1,1.2l-0.1,0.4l-0.3,0.5c-0.1,0.3-0.5,0.8-1,1.5c-0.3,0.4-0.7,0.7-1,0.9l-0.4,0.5l-0.5,0.4l-0.1,0.4
	c0.2,0.4,0.4,0.8,0.7,1.1c0.1,0.1,0.6,0.2,1.4,0.5c1.2,0,2.3-0.4,3.2-1.4c0.1,0,0.3-0.1,0.5-0.4c0.2-0.3,0.3-0.4,0.5-0.5
	c0.1,0,0.2,0.1,0.3,0.4l0,0.3c0.1,0.7,0.1,1.2,0,1.4l-1.4,1l-1.5,1.1l-0.7,0.2l-0.8,0.1l-0.8,0.2l-0.5-0.1
	C210.4,69.7,209.8,69.4,209,68.9z M197.4,67l-0.1-0.4l-0.2-1.1l0.3-0.4l0.3-0.6c0,0,0-0.2,0.1-0.4l0.6-0.9l0.3-0.6
	c0.1-0.3,0.2-0.4,0.3-0.6l-0.1-0.2l-0.1-0.2l-0.1-0.2l-0.1-0.2l0.4-0.4l0.5-0.4c0.3-0.4,0.6-0.6,1.1-0.6c0.6,0,1.3,0.3,2.1,1
	c0.1,0.1,0.2,0.2,0.4,0.3l0.5,0.7c0.5,0.4,0.9,1.3,1.1,2.5c0,0.2,0,0.8-0.1,1.8l-0.2,1.6l0.1,0.1l0.1,0.1c0.2,0,0.5-0.1,0.8-0.4
	l1-0.9l0.8-0.8l0.1-0.3l0.1-0.1c0.1,0,0.1,0.1,0.2,0.3l0,0.2c0.2,0.1,0.3,0.4,0.4,0.9l-0.2,0.4c-0.1,0.2-0.1,0.4-0.2,0.6
	c-0.1,0-0.5,0.3-1.1,0.8l-1.1,1l-0.9,0.5l-0.8,0.5l-0.5,0.1c-0.4,0-0.7,0-0.9-0.1c-0.1,0-0.3-0.2-0.6-0.6l0-0.9l0.4-2.9l-0.1-1.4
	c-0.2-1.1-0.6-1.7-1.3-1.8c-0.3,0.1-0.5,0.2-0.8,0.5l-1.2,1.9l-0.3,0.3l-0.6,0.8l-0.3,0.5l-0.1,0.1l-0.1,0.1L197.4,67z M191.8,69.3
	c-0.3-2.8-0.3-4.7-0.1-5.6l0-0.2l-0.1,0l-0.4,0.7l-0.5,0.7l-1.1,1.3l-1.2,1.4l-0.1-0.5l-0.2-0.8c-0.1-0.5,0-0.9,0.3-1.2
	c0.1-0.1,0.2-0.2,0.3-0.4l0.5-0.7l1.2-2.3l1-2c0.1-0.2,0.2-0.5,0.3-0.9c0-0.2,0.1-0.3,0.1-0.6h-0.4l-1.4,0l-1.4,0l-0.1,0h-0.1
	c-0.8,0-1.3-0.2-1.4-0.6c-0.2-0.9-0.2-1.4-0.2-1.6c0.1-0.4,0.5-0.6,1.2-0.6l2.8,0.1l0.1,0l0.2,0l0.6-0.1c0.1,0,0.2,0,0.3,0l0.1,0.1
	c0.4-0.1,0.7-0.3,0.8-0.7l0.5-1.3c0.2-0.5,0.4-0.9,0.7-1l0.3,0l0.1,0.1c0.4,0.1,0.6,0.4,0.7,0.8l0.1,0.6l-0.1,0.6L195,55
	c0,0.2,0.1,0.3,0.3,0.5c0.1,0,0.2,0.1,0.3,0.3l0.1,1.1l0.2,0.9c0,0.1,0,0.2-0.2,0.3l-0.6,0.1c-0.2,0-0.3,0-0.5,0.1
	c-0.1,0.1-0.1,0.3-0.1,0.7l-0.3,3.1l-0.2,2.9l0,1.2l0.1,1c0,0.1,0.1,0.3,0.1,0.4l0.1,0.2c0.3,0,0.6-0.1,0.8-0.3l0.7-0.8l0.6-0.7
	l0.6-0.6l0.4-0.3c0.1,0,0.2,0.2,0.3,0.5c0.1,0.5,0.1,0.9,0,1.3c0,0.2-0.3,0.5-0.7,1.1l-0.4,0.5l-0.4,0.5l-0.4,0.3
	c-1.1,1.4-1.9,2.1-2.3,2.2c-1-0.4-1.5-0.9-1.8-1.6L191.8,69.3z M166.1,70.6c0,0.3-0.4,0.4-1.1,0.4c-0.4,0-0.6,0-0.7-0.1l-0.2-0.3
	l0-0.4l-0.1-0.3l0-1l0.1-0.8l0-0.6l0.2-0.7l0-0.7l0-0.4c0.1-0.2,0.1-0.4,0.1-0.8c0-0.1-0.1-0.2-0.3-0.3c-0.3,0-0.5,0.1-0.6,0.4
	l-0.7,1l-0.7,0.9l-0.3,0.3l-0.2,0.2l-0.1-0.2l-0.1-0.8l-0.1-0.8c0-0.3,0-0.6,0.2-0.7c0.1-0.3,0.2-0.5,0.3-0.7l0.7-1.1l1.5-2
	c0.6-0.7,1.1-1.1,1.8-1.1c0.7,0,1.2,0.5,1.4,1.6c0,0.1,0,0.3,0.1,0.6c0,0.1,0,0.4,0,0.9l-0.1,0.7l-0.2,1.5l-0.1,1v0.5l0.2-0.1
	l0.2-0.4l0.3-0.5c0.2-0.4,0.6-0.8,1.2-1.4l0.5-0.8l0.8-0.7c0.2-0.2,0.6-0.3,1.1-0.3c0.3,0,0.7,0,1,0.2l0.5,0.6l0.6,0.7l0.6,1
	c0.3,0.5,0.5,0.8,0.8,0.9l0.3,0.2l0.2,0.1c0.2-0.3,0.6-0.6,1.2-1.1c0.2,1,0.3,1.6,0.4,1.8c-0.8,1.3-1.6,2-2.4,2
	c-0.2,0-0.5-0.1-0.9-0.3c-0.4-0.3-0.6-0.6-0.8-0.8l-0.7-0.9c-0.2-0.3-0.5-0.5-0.7-0.7c-0.2-0.4-0.5-0.6-0.8-0.6
	c-0.1,0-0.4,0.3-1,0.8l-1.2,1.2c0,0.3-0.2,0.6-0.5,1l-0.9,1.2L166.1,70.6z M156.3,61.3c-0.3,0-0.7,0.2-1,0.7
	c-0.3,0.4-0.4,0.8-0.5,1.3l0.2,0.1c0.2,0,0.4-0.1,0.5-0.2l0.3-0.3c0.4-0.2,0.6-0.6,0.6-1.3L156.3,61.3z M154,68.9
	c0-0.1-0.1-0.2-0.1-0.2c0-0.1-0.1-0.2-0.3-0.3c-0.1-0.1-0.3-0.5-0.5-0.9l-0.4-1l-0.3-1.1l0-0.5l0.1-0.7l0.2-0.8l0.2-0.8l0.4-0.9
	c0.2-0.5,0.4-0.8,0.6-0.9c0.3-0.4,0.8-0.9,1.6-1.5c0.1-0.3,0.5-0.5,1.3-0.6c0.5,0,1,0.2,1.5,0.5c0.2,0.1,0.4,0.4,0.5,1.1
	c0.1,0.7,0.1,1.1-0.1,1.2l-0.1,0.4l-0.3,0.5c-0.1,0.3-0.5,0.8-1,1.5c-0.3,0.4-0.7,0.7-1,0.9l-0.4,0.5l-0.5,0.4l-0.1,0.4
	c0.2,0.4,0.4,0.8,0.7,1.1c0.1,0.1,0.6,0.2,1.4,0.5c1.2,0,2.3-0.4,3.2-1.4c0.1,0,0.3-0.1,0.5-0.4c0.2-0.3,0.3-0.4,0.5-0.5
	c0.1,0,0.2,0.1,0.3,0.4l0,0.3c0.1,0.7,0.1,1.2,0,1.4l-1.4,1l-1.5,1.1l-0.7,0.2l-0.8,0.1l-0.8,0.2l-0.5-0.1
	C155.4,69.7,154.7,69.4,154,68.9z M144.5,63.8l1.1-2.3l-0.1-1.1l-0.7,0.7l-0.4,0.6l-0.3,0.4c-0.2,0.3-0.4,0.6-0.6,0.9l-0.8,1.5
	c-0.6,1.1-0.8,2-0.7,2.6c0.1,0,0.2-0.1,0.4-0.2l0.5-0.6l0.3-0.4L144.5,63.8z M141.9,70c-0.4,0.3-0.7,0.4-1,0.4
	c-0.9,0-1.5-0.4-1.8-1.1l-0.1-0.5c0-0.1,0-0.4,0-0.6l0.1-0.7l0.2-0.6l-0.3-0.1l-0.2,0.1l-0.2,0.3l-0.2,0.2l-0.1-0.1l-0.1-0.1l0-0.5
	l0.1-0.3l-0.1-0.2l-0.1-0.3c-0.1-0.5,0.4-1.1,1.5-1.9l0.7-1l0.8-1c0.2-0.2,0.4-0.4,0.8-0.6l0.3-0.5l0.4-0.5l1.5-1.6l0.4-0.3l0.3-0.3
	l0.5-0.2c0-0.1,0.1-0.2,0.2-0.6c0.1-0.4,0.2-0.9,0.3-1.4l0.3-2l1-3.4c0.1-0.3,0.2-0.6,0.2-0.7c0-0.1,0.2-0.3,0.4-0.5
	c0.2-0.3,0.5-0.6,0.8-0.8h0.2c0.4,0,0.7,0.4,0.9,1.2c0.2,0.8,0.1,1.5-0.1,2.1c0.1,0.3,0.1,0.6,0,0.8l-0.2,1l-0.1,0.7
	c0.1,0.6,0,1.4-0.5,2.2c0,0.5-0.1,1-0.3,1.3c0,0.2,0,0.5-0.1,0.7l-0.4,1c-0.2,0.5-0.2,1.2,0,2.1c0.4,2.5,1.4,3.8,2.9,4l1.8-0.8
	l0.1,0.1l0.1,0.1l0,0.3l0,0.3l0.2,0.5l0.2,0.6c-0.4,0.6-1.2,1.1-2.3,1.3c-0.3,0.1-0.6,0.1-1,0.1c-1.6-0.4-2.7-1.2-3.1-2.5l-0.4-0.6
	l-0.2-0.5l-0.1-0.2c-0.2,0-0.4,0.2-0.6,0.5l-0.4,0.8l-0.1,0.5l-1.9,2.8l-0.4,0.4C142.4,69.6,142.2,69.8,141.9,70z M130.4,63.8
	l1.1-2.3l-0.1-1.1l-0.7,0.7l-0.4,0.6l-0.3,0.4c-0.2,0.3-0.4,0.6-0.6,0.9l-0.8,1.5c-0.6,1.1-0.8,2-0.7,2.6c0.1,0,0.2-0.1,0.4-0.2
	l0.5-0.6l0.3-0.4L130.4,63.8z M127.8,70c-0.4,0.3-0.7,0.4-1,0.4c-0.9,0-1.5-0.4-1.8-1.1l-0.1-0.5c0-0.1,0-0.4,0-0.6l0.1-0.7l0.2-0.6
	l-0.3-0.1l-0.2,0.1l-0.2,0.3l-0.2,0.2l-0.1-0.1l-0.1-0.1l0-0.5l0.1-0.3l-0.1-0.2l-0.1-0.3c-0.1-0.5,0.4-1.1,1.5-1.9l0.7-1l0.8-1
	c0.2-0.2,0.4-0.4,0.8-0.6l0.3-0.5l0.4-0.5l1.5-1.6l0.4-0.3l0.3-0.3l0.5-0.2c0-0.1,0.1-0.2,0.2-0.6c0.1-0.4,0.2-0.9,0.3-1.4l0.3-2
	l1-3.4c0.1-0.3,0.2-0.6,0.2-0.7c0-0.1,0.2-0.3,0.4-0.5c0.2-0.3,0.5-0.6,0.8-0.8h0.2c0.4,0,0.7,0.4,0.9,1.2c0.2,0.8,0.1,1.5-0.1,2.1
	c0.1,0.3,0.1,0.6,0,0.8l-0.2,1l-0.1,0.7c0.1,0.6,0,1.4-0.5,2.2c0,0.5-0.1,1-0.3,1.3c0,0.2,0,0.5-0.1,0.7l-0.4,1
	c-0.2,0.5-0.2,1.2,0,2.1c0.4,2.5,1.4,3.8,2.9,4l1.8-0.8l0.1,0.1l0.1,0.1l0,0.3l0,0.3l0.2,0.5l0.2,0.6c-0.4,0.6-1.2,1.1-2.3,1.3
	c-0.3,0.1-0.6,0.1-1,0.1c-1.6-0.4-2.7-1.2-3.1-2.5l-0.4-0.6l-0.2-0.5l-0.1-0.2c-0.2,0-0.4,0.2-0.6,0.5l-0.4,0.8l-0.1,0.5l-1.9,2.8
	l-0.4,0.4C128.3,69.6,128.1,69.8,127.8,70z M115.2,66.7l-0.1-0.7l-0.1-0.6l0.5-0.6c0.1-0.3,0.3-0.5,0.6-0.7c0-0.1,0.2-0.4,0.5-0.9
	c0.3-0.4,0.5-0.7,0.7-0.9c0.1-0.3,0.3-0.6,0.5-0.8c0.8,0,1.5,0.3,2,0.9l0.4,1.4c0.1,0.5,0.2,0.8,0.2,1l0.5,1
	c0.3,0.4,0.6,0.7,1.1,0.7l0.4-0.1l0.7-0.3c0-0.2,0.1-0.4,0.3-0.5l0.4-0.3l0.3-0.2l0.1,1l0.1,0.9c-0.3,0.9-1.3,1.6-3,2.1l-0.7-0.2
	l-0.6-0.3c-0.1,0-0.3-0.2-0.5-0.4c-0.2-0.2-0.4-0.5-0.6-0.9l-0.4-0.7l-0.6-0.8c-0.2-0.4-0.4-0.6-0.7-0.7c-0.2,0-0.4,0.2-0.7,0.5
	l-0.7,0.9c-0.1,0-0.2,0.1-0.4,0.3l-0.2,0.3L115.2,66.7z M116.8,55.9c-0.1-0.5,0-0.9,0.3-1.3c0.2-0.4,0.6-0.7,1-0.9
	c0-0.3,0.2-0.4,0.4-0.6c0.4-0.2,0.9-0.4,1.3-0.4c0.3,0.1,0.4,0.2,0.5,0.4c0.1,1.1,0,1.8-0.1,2c0,0.2,0,0.3,0,0.5
	c0,0.1-0.1,0.2-0.2,0.5c-0.2,0.3-0.5,0.5-0.8,0.7l-0.5,0.3c-0.3,0-0.5,0-0.6,0.1c-0.4,0-0.7-0.1-0.8-0.3l0.1-0.1
	C117,56.4,116.8,56.1,116.8,55.9z M106.4,59.4c0,0.2,0.1,0.4,0,0.6l-0.1,1l-0.1,1.7l0,0.4l0.2,0.8l0,0.9l0.1,0.8l0.5-0.4l0.9-0.9
	l0.5-0.8c0.1-0.2,0.4-0.4,0.7-0.8c0.2-0.2,0.6-0.3,1.1-0.3c0.4,0,0.7,0.1,1,0.2l0.5,0.6l0.5,0.7l0.6,1c0.3,0.5,0.5,0.8,0.8,0.9
	l0.3,0.2l0.2,0.1c0.1,0,0.2-0.1,0.2-0.2c0.2-0.2,0.5-0.5,0.9-0.9c0.2,1.1,0.4,1.7,0.5,1.8c-0.8,1.3-1.6,2-2.4,2
	c-0.4-0.1-0.7-0.2-0.9-0.3c-0.2-0.2-0.5-0.5-0.8-0.8l-0.8-0.9c-0.2-0.3-0.4-0.5-0.7-0.7c-0.2-0.4-0.5-0.6-0.8-0.6
	c-0.1,0-0.4,0.3-1,0.8l-1.2,1.2c0,0.3-0.2,0.6-0.5,1l-0.9,1.2l-0.4,0.4c0,0-0.2,0.1-0.5,0.2c-0.2,0-0.5-0.3-0.7-0.8l-0.2-1.5
	l-0.1-1.1l-0.1-0.4l-0.1,0.1l-0.1,0.4l-0.2,0.3l-0.2,0.2l-0.2,0.1l-0.2-0.4l-0.1-0.7c-0.1-0.4,0-0.8,0.3-1.2
	c0.3-0.5,0.5-0.9,0.6-1.1l0-1.8l0.1-1.5l0.1-1.1c0.1-0.3,0.1-0.5,0.1-0.8l0-0.6l0.2-1.1l0.1-1.2c0-0.7,0.1-1.1,0.1-1.2l0.7-4.7
	c0-0.3,0.2-0.6,0.6-0.8l0.3,0l0.2,0.1c0.2,0,0.4,0.1,0.6,0.3c0.2,0.1,0.3,0.2,0.4,0.4l0.2,0.6l0.2,0.5l0.3,0.9l0.1,0.8
	c0,0.3,0,0.5,0,0.6l-0.2,0.8l-0.4,2c-0.1,0.1-0.3,0.7-0.5,1.7C106.7,57.9,106.6,58.5,106.4,59.4z M78.6,67.1l-0.2-0.9
	c-0.2-0.7,0.3-1.7,1.6-2.8c0-0.2,0.2-0.5,0.5-0.8l1-1.1l2.2-2.1l0.9-0.7c0.1-0.2,0.4-0.3,0.8-0.5c0.3-0.2,0.6-0.3,1.1-0.3
	c0.2,0,0.5,0.3,0.8,0.6c0.1,0.7-0.2,1.2-0.9,1.6c-0.1,0.2-0.5,0.7-1.1,1.4c-0.1,0.1-0.3,0.4-0.8,0.9c-0.1,0.1-0.2,0.2-0.3,0.3
	l-0.3,0.6l-0.3,0.3l-0.2,0.2c-0.1,0.3-0.4,0.7-0.8,1.2l-0.7,0.8l-0.1,0.4l-0.1,0.2l-0.1,0.2c0.4,0,0.7-0.1,1-0.4l1-1.1
	c0.3-0.3,0.6-0.6,1-1c0.1-0.3,0.3-0.5,0.4-0.7l0.4-0.5c0.4-0.3,0.9-0.5,1.5-0.5c0.2,0,0.3,0.1,0.4,0.2l0.3,0.5l0.2,0.6l0,1
	c0.1,0.4,0.2,0.7,0.5,1c0.2,0.2,0.5,0.3,0.9,0.4c0.5-0.1,0.9-0.4,1.3-0.9l0.1,0.1l0.1,0.4l0.1,0.5c0,0.2,0,0.3-0.1,0.4
	c0.1,0.3,0,0.6-0.1,0.9L90.3,68l-0.7,0.4c-0.1,0.1-0.4,0.2-0.8,0.3l-0.2-0.1l-0.2-0.1l-0.5,0.1c-0.3,0-0.7-0.2-1.2-0.6
	c-0.3-0.3-0.6-0.7-0.7-1L86,66.4L85.8,66l-0.1-0.2l-0.5,0.4l-0.5,0.7l-0.1,0.2l-0.2,0.1c-0.4,0.7-0.8,1.2-1.2,1.4
	c-0.1,0.3-0.3,0.6-0.8,1c-0.5,0.3-0.9,0.5-1.2,0.6L80.5,70c-0.8,0-1.3-0.5-1.7-1.5l0-0.3c0-0.1,0-0.3,0-0.5l0.1-0.4c0,0,0,0,0-0.1
	C78.9,67.3,78.8,67.2,78.6,67.1z"/>
</svg>
